<?xml version="1.0" encoding="UTF-8" standalone="no"?>
<svg
   xmlns:dc="http://purl.org/dc/elements/1.1/"
   xmlns:cc="http://creativecommons.org/ns#"
   xmlns:rdf="http://www.w3.org/1999/02/22-rdf-syntax-ns#"
   xmlns:svg="http://www.w3.org/2000/svg"
   xmlns="http://www.w3.org/2000/svg"
   xmlns:xlink="http://www.w3.org/1999/xlink"
   width="48"
   height="48"
   id="svg3399"
   version="1.0">
  <defs
     id="defs3401">
    <linearGradient
       id="linearGradient6653">
      <stop
         id="stop6655"
         offset="0"
         style="stop-color:#ffffff;stop-opacity:1;" />
      <stop
         id="stop6657"
         offset="1.0000000"
         style="stop-color:#c9c9c9;stop-opacity:1.0000000;" />
    </linearGradient>
    <linearGradient
       id="linearGradient4885">
      <stop
         id="stop4887"
         offset="0"
         style="stop-color:#e9b96e;stop-opacity:1;" />
      <stop
         id="stop4889"
         offset="1"
         style="stop-color:#8f5902;stop-opacity:1;" />
    </linearGradient>
    <linearGradient
       id="linearGradient4871">
      <stop
         id="stop4873"
         offset="0"
         style="stop-color:#674001;stop-opacity:1;" />
      <stop
         id="stop4875"
         offset="1"
         style="stop-color:#9a640d;stop-opacity:1;" />
    </linearGradient>
    <linearGradient
       id="linearGradient4855">
      <stop
         style="stop-color:#555753;stop-opacity:1;"
         offset="0"
         id="stop4857" />
      <stop
         style="stop-color:#babdb6;stop-opacity:1;"
         offset="1"
         id="stop4859" />
    </linearGradient>
    <linearGradient
       id="linearGradient4779">
      <stop
         style="stop-color:#e9b96e;stop-opacity:1;"
         offset="0"
         id="stop4781" />
      <stop
         style="stop-color:#8f5902;stop-opacity:1;"
         offset="1"
         id="stop4783" />
    </linearGradient>
    <linearGradient
       id="linearGradient3996">
      <stop
         id="stop3998"
         offset="0"
         style="stop-color:#ffa853;stop-opacity:1;" />
      <stop
         id="stop4000"
         offset="1"
         style="stop-color:#f57900;stop-opacity:1;" />
    </linearGradient>
    <linearGradient
       id="linearGradient3824">
      <stop
         style="stop-color:#ffffff;stop-opacity:1;"
         offset="0"
         id="stop3826" />
      <stop
         style="stop-color:#c9c9c9;stop-opacity:1.0000000;"
         offset="1.0000000"
         id="stop3828" />
    </linearGradient>
    <linearGradient
       id="linearGradient4454">
      <stop
         id="stop4456"
         offset="0.0000000"
         style="stop-color:#729fcf;stop-opacity:0.20784314;" />
      <stop
         id="stop4458"
         offset="1.0000000"
         style="stop-color:#729fcf;stop-opacity:0.67619050;" />
    </linearGradient>
    <linearGradient
       id="linearGradient4467">
      <stop
         id="stop4469"
         offset="0"
         style="stop-color:#ffffff;stop-opacity:1;" />
      <stop
         id="stop4471"
         offset="1.0000000"
         style="stop-color:#ffffff;stop-opacity:0.24761905;" />
    </linearGradient>
    <linearGradient
       xlink:href="#linearGradient4885"
       id="linearGradient6447"
       gradientUnits="userSpaceOnUse"
       x1="20.5"
       y1="29.101185"
       x2="20.5"
       y2="22.5" />
    <radialGradient
       xlink:href="#linearGradient4454"
       id="radialGradient6479"
       gradientUnits="userSpaceOnUse"
       cx="18.240929"
       cy="21.817987"
       fx="18.240929"
       fy="21.817987"
       r="8.3085051" />
    <linearGradient
       xlink:href="#linearGradient4779"
       id="linearGradient6481"
       gradientUnits="userSpaceOnUse"
       x1="17.035538"
       y1="24.969891"
       x2="24.5"
       y2="30.882526" />
    <linearGradient
       xlink:href="#linearGradient4779"
       id="linearGradient6485"
       gradientUnits="userSpaceOnUse"
       x1="17.035538"
       y1="24.969891"
       x2="24.5"
       y2="30.882526" />
    <radialGradient
       xlink:href="#linearGradient4467"
       id="radialGradient6489"
       gradientUnits="userSpaceOnUse"
       gradientTransform="matrix(1.6312585,0,0,1.4168211,-12.029817,-2.0354907)"
       cx="15.414371"
       cy="13.078408"
       fx="15.414371"
       fy="13.078408"
       r="6.6562500" />
    <linearGradient
       xlink:href="#linearGradient4871"
       id="linearGradient6511"
       gradientUnits="userSpaceOnUse"
       gradientTransform="matrix(-1.0339261,0,0,0.8959756,52.399158,4.8163117)"
       x1="28.770147"
       y1="35.410713"
       x2="43.908424"
       y2="35.410713" />
    <linearGradient
       xlink:href="#linearGradient4871"
       id="linearGradient6515"
       gradientUnits="userSpaceOnUse"
       gradientTransform="matrix(1.0333511,0,0,0.9116777,-5.3489807,4.4181271)"
       x1="28.770147"
       y1="35.410713"
       x2="43.908424"
       y2="35.410713" />
    <radialGradient
       xlink:href="#linearGradient3996"
       id="radialGradient6518"
       gradientUnits="userSpaceOnUse"
       gradientTransform="matrix(0.9895598,5.4975383e-3,-5.6062341e-3,1.0091251,-16.231069,5.3891337)"
       cx="40.625"
       cy="21.125"
       fx="40.625"
       fy="21.125"
       r="17.5" />
    <linearGradient
       xlink:href="#linearGradient4855"
       id="linearGradient6565"
       gradientUnits="userSpaceOnUse"
       x1="41.839287"
       y1="11.725312"
       x2="7.6249986"
       y2="4.8893747" />
    <linearGradient
       xlink:href="#linearGradient4855"
       id="linearGradient6569"
       gradientUnits="userSpaceOnUse"
       x1="41.839287"
       y1="11.725312"
       x2="7.6249986"
       y2="4.8893747" />
    <linearGradient
       xlink:href="#linearGradient3824"
       id="linearGradient6631"
       gradientUnits="userSpaceOnUse"
       x1="41.839287"
       y1="11.725312"
       x2="7.6249986"
       y2="4.8893747" />
    <linearGradient
       xlink:href="#linearGradient4855"
       id="linearGradient6633"
       gradientUnits="userSpaceOnUse"
       x1="41.839287"
       y1="11.725312"
       x2="7.6249986"
       y2="4.8893747" />
    <linearGradient
       xlink:href="#linearGradient3824"
       id="linearGradient6635"
       gradientUnits="userSpaceOnUse"
       x1="41.839287"
       y1="11.725312"
       x2="7.6249986"
       y2="4.8893747" />
    <linearGradient
       xlink:href="#linearGradient4855"
       id="linearGradient6637"
       gradientUnits="userSpaceOnUse"
       x1="41.839287"
       y1="11.725312"
       x2="7.6249986"
       y2="4.8893747" />
    <linearGradient
       xlink:href="#linearGradient4855"
       id="linearGradient6644"
       gradientUnits="userSpaceOnUse"
       gradientTransform="matrix(0.9760192,0.4565493,-0.4565493,0.9760192,12.012785,-10.858378)"
       x1="41.839287"
       y1="11.725312"
       x2="7.6249986"
       y2="4.8893747" />
    <linearGradient
       xlink:href="#linearGradient6653"
       id="linearGradient6683"
       x1="7.3931131"
       y1="14.473214"
       x2="41.535458"
       y2="14.473214"
       gradientUnits="userSpaceOnUse" />
    <linearGradient
       xlink:href="#linearGradient6653"
       id="linearGradient6695"
       x1="16.500257"
       y1="9.4170818"
       x2="32.964027"
       y2="9.4170818"
       gradientUnits="userSpaceOnUse" />
  </defs>
  <metadata
     id="metadata3404">
    <rdf:RDF>
      <cc:Work
         rdf:about="">
        <dc:format>image/svg+xml</dc:format>
        <dc:type
           rdf:resource="http://purl.org/dc/dcmitype/StillImage" />
      </cc:Work>
    </rdf:RDF>
  </metadata>
  <g
     id="layer1">
    <path
       style="fill:#fce94f;fill-rule:evenodd;stroke:#ce5c00;stroke-width:1;stroke-linecap:butt;stroke-linejoin:round;stroke-miterlimit:4;stroke-dasharray:none;stroke-opacity:1"
       d="M 30.339147,11.902674 C 33.879625,8.7214935 38.432517,6.4732996 44.231468,6.3034155 C 45.331874,13.328278 42.725475,18.967571 40.998906,21.388707"
       id="path3433" />
    <path
       style="fill:#c17d11;fill-rule:evenodd;stroke:#c17d11;stroke-width:1;stroke-linecap:butt;stroke-linejoin:round;stroke-miterlimit:4;stroke-dasharray:none;stroke-opacity:1"
       d="M 32.519057,13.050608 C 35.560713,10.812157 38.54804,9.2184794 42.506526,8.855148 C 42.267505,16.211346 40.868809,17.170774 39.432416,19.606631"
       id="path3992" />
    <path
       style="fill:#fce94f;fill-rule:evenodd;stroke:#ce5c00;stroke-width:1;stroke-linecap:butt;stroke-linejoin:round;stroke-miterlimit:4;stroke-dasharray:none;stroke-opacity:1"
       d="M 16.578103,12.249021 C 13.037625,9.0678399 8.0999045,6.6272312 2.300953,6.4573471 C 1.2005482,13.482208 3.8069465,19.121502 5.5335152,21.542637"
       id="path3413" />
    <path
       style="fill:#c17d11;fill-rule:evenodd;stroke:#c17d11;stroke-width:1;stroke-linecap:butt;stroke-linejoin:round;stroke-miterlimit:4;stroke-dasharray:none;stroke-opacity:1"
       d="M 14.234612,13.146816 C 11.192957,10.908364 8.2056298,9.3146858 4.2471427,8.9513545 C 4.4861638,16.307552 5.8848604,17.266982 7.3212534,19.702838"
       id="path3451" />
    <path
       style="fill:#fce94f;fill-rule:evenodd;stroke:#ce5c00;stroke-width:1;stroke-linecap:butt;stroke-linejoin:miter;stroke-miterlimit:4;stroke-dasharray:none;stroke-opacity:1"
       d="M 4.8985477,27.411277 C 5.4359954,24.056334 4.8462415,11.900222 24.043782,10.575017 C 37.039725,12.547976 41.6285,17.770655 42.611773,27.411277 C 42.340061,32.562346 29.321721,45.964852 23.947575,45.498232 C 18.144062,45.84115 4.9859973,32.119468 4.8985477,27.411277 z"
       id="path4752" />
    <path
       style="fill:url(#radialGradient6518);fill-opacity:1;fill-rule:evenodd;stroke:none;stroke-width:1;stroke-linecap:butt;stroke-linejoin:miter;stroke-miterlimit:4;stroke-dasharray:none;stroke-opacity:1"
       d="M 6.5340701,27.068611 C 7.8983168,24.70431 5.6454157,14.121805 23.947576,12.348908 C 34.923167,13.552212 39.704356,18.197646 41.168666,27.357232 C 40.03109,32.315885 28.840685,43.313214 23.851366,44.001079 C 18.625098,42.708474 8.9304924,33.989566 6.5340701,27.068611 z"
       id="path4756" />
    <path
       style="fill:#c17d11;fill-opacity:1;fill-rule:evenodd;stroke:url(#linearGradient6515);stroke-width:1;stroke-linecap:round;stroke-linejoin:round;marker:none;marker-start:none;marker-mid:none;marker-end:none;stroke-miterlimit:4;stroke-dasharray:none;stroke-dashoffset:0;stroke-opacity:1;visibility:visible;display:inline;overflow:visible"
       d="M 24.897359,27.789746 C 24.897359,27.789746 37.538937,27.176365 39.321654,33.355164 C 40.517583,37.500192 35.556183,40.072673 35.133716,42.875342 C 34.71125,45.678012 37.631784,44.966222 37.631784,44.966222 L 37.337893,45.589037 C 37.337893,45.589037 34.49083,46.145122 34.39899,43.142263 C 34.307149,40.139403 39.407459,36.313538 37.644116,33.355164 C 35.880775,30.396792 27.345622,31.308772 27.345622,31.308772 L 24.897359,27.789746 z"
       id="path4744" />
    <path
       style="fill:url(#linearGradient6447);fill-opacity:1;fill-rule:evenodd;stroke:#8f5902;stroke-width:0.79521519;stroke-linecap:round;stroke-linejoin:round;stroke-miterlimit:4;stroke-dasharray:none;stroke-opacity:1"
       id="path4793"
       d="M 24,26.5 A 3.5,3.5 0 1 1 17,26.5 A 3.5,3.5 0 1 1 24,26.5 z"
       transform="matrix(1.2575213,0,0,1.2575213,-1.8316122,2.8418179)" />
    <path
       style="fill:#c17d11;fill-opacity:1;fill-rule:evenodd;stroke:url(#linearGradient6511);stroke-width:1;stroke-linecap:round;stroke-linejoin:round;marker:none;marker-start:none;marker-mid:none;marker-end:none;stroke-miterlimit:4;stroke-dasharray:none;stroke-dashoffset:0;stroke-opacity:1;visibility:visible;display:inline;overflow:visible"
       d="M 22.135988,27.785393 C 22.135988,27.785393 9.4873788,27.182577 7.7036708,33.254957 C 6.5070742,37.328594 11.471233,39.856769 11.893936,42.611165 C 12.316639,45.365565 9.3944793,44.666034 9.3944793,44.666034 L 9.6885339,45.278122 C 9.6885339,45.278122 12.537178,45.82463 12.629069,42.87349 C 12.720963,39.922349 7.6178166,36.162377 9.38214,33.254957 C 11.146464,30.347536 19.686364,31.24381 19.686364,31.24381 L 22.135988,27.785393 z"
       id="path4877" />
    <path
       style="fill:#2e3436;fill-opacity:1;fill-rule:evenodd;stroke:#8f5902;stroke-width:0.76992202;stroke-linecap:round;stroke-linejoin:round;stroke-miterlimit:4;stroke-dasharray:none;stroke-opacity:1"
       id="path3425"
       d="M 24,26.5 A 3.5,3.5 0 1 1 17,26.5 A 3.5,3.5 0 1 1 24,26.5 z"
       transform="matrix(1.2516197,0,0,1.347827,-2.0153881,-4.3631915)" />
    <g
       style="stroke-width:0.92805642;stroke-miterlimit:4;stroke-dasharray:none"
       transform="matrix(1.0775207,0,0,1.0775207,-2.3052558,1.6919974)"
       id="g4829">
      <path
         style="fill:#eeeeec;fill-rule:evenodd;stroke:#555753;stroke-width:0.92805642;stroke-linecap:butt;stroke-linejoin:round;stroke-miterlimit:4;stroke-dasharray:none;stroke-opacity:1"
         d="M 26.607144,20.499999 C 30.429921,23.504167 32.987801,20.546037 34.910715,16.482142 C 29.699328,16.271091 28.286013,16.953596 26.607144,20.499999 z"
         id="path4831" />
      <path
         style="fill:none;fill-rule:evenodd;stroke:#2e3436;stroke-width:0.92805642;stroke-linecap:butt;stroke-linejoin:round;stroke-miterlimit:4;stroke-dasharray:none;stroke-opacity:1"
         d="M 29.732143,17.642856 C 29.566287,19.288284 29.636012,20.012351 30.892857,20.946429 C 30.805511,19.427602 30.760396,18.69123 29.732143,17.642856 z"
         id="path4833" />
    </g>
    <path
       transform="matrix(0.9760192,0.4565493,-0.4565493,0.9760192,12.559563,-11.3461)"
       d="M 41.071428,14.473214 A 16.607143,3.7946429 0 1 1 7.8571415,14.473214 A 16.607143,3.7946429 0 1 1 41.071428,14.473214 z"
       id="path4899"
       style="fill:url(#linearGradient6683);fill-opacity:1.0;fill-rule:evenodd;stroke:url(#linearGradient6565);stroke-width:0.92805647999999996;stroke-linecap:round;stroke-linejoin:round;stroke-miterlimit:4;stroke-dasharray:none;stroke-opacity:1" />
    <path
       style="fill:none;fill-opacity:1;fill-rule:evenodd;stroke:#eeeeec;stroke-width:1.00758266;stroke-linecap:round;stroke-linejoin:round;stroke-miterlimit:4;stroke-dasharray:none;stroke-opacity:1"
       id="path6333"
       d="M 48.919388,13.966797 A 16.790482,3.0643008 0 1 1 15.338425,13.966797 A 16.790482,3.0643008 0 1 1 48.919388,13.966797 z"
       transform="matrix(-0.8998244,-0.4254494,-0.4166034,0.8976883,64.755605,15.077544)" />
    <g
       id="g4924"
       style="fill:url(#linearGradient6635);fill-opacity:1;stroke:url(#linearGradient6637);stroke-width:0.92805648;stroke-miterlimit:4;stroke-dasharray:none"
       transform="matrix(0.9760192,0.4565493,-0.4565493,0.9760192,12.012785,-10.858378)">
      <g
         id="g4921"
         style="fill:url(#linearGradient6631);fill-opacity:1;stroke:url(#linearGradient6633);stroke-width:0.92805648;stroke-miterlimit:4;stroke-dasharray:none">
        <path
           style="opacity:1;fill:url(#linearGradient6695);fill-opacity:1.0;fill-rule:evenodd;stroke:url(#linearGradient6569);stroke-width:0.92805647999999996;stroke-linecap:butt;stroke-linejoin:miter;stroke-miterlimit:4;stroke-dasharray:none;stroke-opacity:1"
           d="M 16.964285,5.142857 C 20.455572,4.1748538 26.665786,3.3486573 32.5,4.9642856 L 32.410714,13.357143 C 27.433,15.416781 20.844169,15.096276 17.053571,13.357143 L 16.964285,5.142857 z"
           id="path4895" />
      </g>
    </g>
    <path
       style="fill:none;fill-rule:evenodd;stroke:#eeeeec;stroke-width:1px;stroke-linecap:butt;stroke-linejoin:round;stroke-opacity:1"
       d="M 23.730469,9.7187498 L 26.660157,3.7617186 C 30.894686,8.0580089 34.564735,9.3573863 40.234375,9.2304685 L 36.914063,15.871094 C 31.823017,15.213342 27.520799,12.977933 23.730469,9.7187498 z"
       id="path6639" />
    <path
       style="fill:none;fill-opacity:1;fill-rule:evenodd;stroke:url(#linearGradient6644);stroke-width:1;stroke-linecap:butt;stroke-linejoin:miter;stroke-miterlimit:4;stroke-dasharray:none;stroke-opacity:1"
       d="M 26.350196,1.8598009 C 31.073307,7.1733416 37.381453,9.0566494 41.036865,8.8359478"
       id="path4897" />
    <path
       style="fill:none;fill-rule:evenodd;stroke:#4e9a06;stroke-width:1;stroke-linecap:butt;stroke-linejoin:round;stroke-miterlimit:4;stroke-dasharray:none;stroke-opacity:1"
       d="M 6.9643031,20.287608 C 2.8935603,21.579527 5.063038,22.669179 7.9771427,23.734698"
       id="path4391" />
    <path
       style="fill:none;fill-opacity:1;fill-rule:evenodd;stroke:#4e8206;stroke-width:1.17306483;stroke-linecap:round;stroke-linejoin:round;marker:none;marker-start:none;marker-mid:none;marker-end:none;stroke-miterlimit:4;stroke-dasharray:none;stroke-dashoffset:0;stroke-opacity:1;visibility:visible;display:inline;overflow:visible"
       id="path1500"
       d="M 21.036428,12.467883 A 9.5459423,9.5459423 0 1 1 1.9445438,12.467883 A 9.5459423,9.5459423 0 1 1 21.036428,12.467883 z"
       transform="matrix(0.8524678,0,0,0.8524678,5.4837502,10.298252)" />
    <g
       style="stroke-width:0.92805642;stroke-miterlimit:4;stroke-dasharray:none"
       id="g4801"
       transform="matrix(-1.0775207,0,0,1.0775207,49.26181,1.6980893)">
      <g
         style="stroke-width:0.92805642;stroke-miterlimit:4;stroke-dasharray:none"
         id="g4825">
        <path
           style="fill:#eeeeec;fill-rule:evenodd;stroke:#555753;stroke-width:0.92805642;stroke-linecap:butt;stroke-linejoin:round;stroke-miterlimit:4;stroke-dasharray:none;stroke-opacity:1"
           d="M 26.607144,20.499999 C 30.429921,23.504167 32.987801,20.546037 34.910715,16.482142 C 29.699328,16.271091 28.286013,16.953596 26.607144,20.499999 z"
           id="path4803" />
        <path
           style="fill:none;fill-rule:evenodd;stroke:#2e3436;stroke-width:0.92805642;stroke-linecap:butt;stroke-linejoin:round;stroke-miterlimit:4;stroke-dasharray:none;stroke-opacity:1"
           d="M 29.732143,17.642856 C 29.566287,19.288284 29.636012,20.012351 30.892857,20.946429 C 30.805511,19.427602 30.760396,18.69123 29.732143,17.642856 z"
           id="path4805" />
      </g>
    </g>
    <path
       style="fill:url(#radialGradient6479);fill-opacity:1;fill-rule:evenodd;stroke:#73be16;stroke-width:1.13651681;stroke-linecap:round;stroke-linejoin:round;marker:none;marker-start:none;marker-mid:none;marker-end:none;stroke-miterlimit:4;stroke-dasharray:none;stroke-dashoffset:0;stroke-opacity:1;visibility:visible"
       id="path5146"
       d="M 25.897786,18.478292 A 8.3085051,8.3085051 0 1 1 9.280776,18.478292 A 8.3085051,8.3085051 0 1 1 25.897786,18.478292 z"
       transform="matrix(0.8798814,0,0,0.8798814,-0.1802653,4.6595183)" />
    <path
       style="fill:url(#linearGradient6481);fill-opacity:1;fill-rule:evenodd;stroke:#8f5902;stroke-width:0.79521519;stroke-linecap:round;stroke-linejoin:round;stroke-miterlimit:4;stroke-dasharray:none;stroke-opacity:1"
       id="path3417"
       d="M 24,26.5 A 3.5,3.5 0 1 1 17,26.5 A 3.5,3.5 0 1 1 24,26.5 z"
       transform="matrix(1.2575213,0,0,1.2575213,-6.5376962,-1.0492977)" />
    <path
       style="opacity:0.3;fill:url(#radialGradient6489);fill-opacity:1;fill-rule:evenodd;stroke:none;stroke-width:1;stroke-linecap:round;stroke-linejoin:round;marker:none;marker-start:none;marker-mid:none;marker-end:none;stroke-miterlimit:4;stroke-dasharray:none;stroke-dashoffset:0;stroke-opacity:1;visibility:visible;display:inline;overflow:visible"
       d="M 15.158223,14.533805 C 11.882076,14.533805 9.2291467,17.186733 9.2291467,20.46288 C 9.2291467,21.409047 9.493566,22.279606 9.8879322,23.073624 C 10.675816,23.364031 10.919117,23.44855 11.72763,23.080578 C 15.321218,21.445056 17.652019,20.022074 19.623329,16.680958 C 18.534363,15.394096 16.974753,14.533805 15.158223,14.533805 z"
       id="path5148" />
    <path
       style="fill:url(#linearGradient6485);fill-opacity:1;fill-rule:evenodd;stroke:#8f5902;stroke-width:0.79521519;stroke-linecap:round;stroke-linejoin:round;stroke-miterlimit:4;stroke-dasharray:none;stroke-opacity:1"
       id="path4789"
       d="M 24,26.5 A 3.5,3.5 0 1 1 17,26.5 A 3.5,3.5 0 1 1 24,26.5 z"
       transform="matrix(1.2575213,0,0,1.2575213,2.6901267,-0.9102632)" />
  </g>
</svg>
